<svg width="128" height="128" viewBox="0 0 128 128" xmlns="http://www.w3.org/2000/svg" role="img" aria-labelledby="title desc">
  <title id="title">Hoda Hashemi shared-stem HH mark</title>
  <desc id="desc">A faceted shared-stem HH monogram built from three vertical bars and two horizontal links.</desc>
  <defs>
    <linearGradient id="metal" x1="22" y1="106" x2="104" y2="22" gradientUnits="userSpaceOnUse">
      <stop stop-color="#e9f056"/>
      <stop offset="0.35" stop-color="#ff5f1f"/>
      <stop offset="0.72" stop-color="#d7efff"/>
      <stop offset="1" stop-color="#8f3dff"/>
    </linearGradient>
    <linearGradient id="visor" x1="31" y1="48" x2="97" y2="48" gradientUnits="userSpaceOnUse">
      <stop stop-color="#64ff73"/>
      <stop offset="0.5" stop-color="#d7efff"/>
      <stop offset="1" stop-color="#a855ff"/>
    </linearGradient>
    <filter id="glow" x="-30%" y="-30%" width="160%" height="160%">
      <feGaussianBlur stdDeviation="2.2" result="blur"/>
      <feMerge>
        <feMergeNode in="blur"/>
        <feMergeNode in="SourceGraphic"/>
      </feMerge>
    </filter>
  </defs>

  <path d="M18 14h92l12 18v64l-18 18H24L6 96V32l12-18Z" fill="#050208"/>
  <path d="M24 21h80l10 15v55l-15 16H29L14 91V36l10-15Z" fill="#351e28" opacity="0.72"/>
  <path d="M21 42h86l-9 18H30l-9-18Z" fill="#050208"/>
  <path d="M31 44h66l-6 12H37l-6-12Z" fill="url(#visor)" opacity="0.92" filter="url(#glow)"/>

  <path d="M28 37h18v58H28V37Z" fill="#fff7eb"/>
  <path d="M55 24h18v82H55V24Z" fill="#fff7eb"/>
  <path d="M82 37h18v58H82V37Z" fill="#fff7eb"/>
  <path d="M40 58h26v16H40V58Z" fill="#fff7eb"/>
  <path d="M62 58h26v16H62V58Z" fill="#fff7eb"/>

  <path d="M46 37l9-8v77l-9-11V37Z" fill="#e9f056"/>
  <path d="M73 24l9 13v58l-9 11V24Z" fill="#ff5f1f"/>
  <path d="M100 37l7 11v39l-7 8V37Z" fill="#8f3dff"/>
  <path d="M28 95h18l9 11H34l-6-11Z" fill="#64ff73" opacity="0.9"/>
  <path d="M82 95h18l-7 11H73l9-11Z" fill="#d7efff" opacity="0.85"/>

  <path d="M23 23l7 7 7-7 7 7-7 7 7 7-7 7-7-7-7 7-7-7 7-7-7-7 7-7Z" fill="#ff5f1f" opacity="0.78"/>
  <path d="M84 23l7 7 7-7 7 7-7 7 7 7-7 7-7-7-7 7-7-7 7-7-7-7 7-7Z" fill="#e9f056" opacity="0.78"/>
  <path d="M21 83h86l-8 24H29l-8-24Z" fill="#050208" opacity="0.28"/>
  <path d="M18 14h92l12 18v64l-18 18H24L6 96V32l12-18Z" fill="none" stroke="url(#metal)" stroke-width="4"/>
</svg>
