<svg width="128" height="128" viewBox="0 0 128 128" xmlns="http://www.w3.org/2000/svg" role="img" aria-labelledby="title desc">
  <title id="title">Hoda Hashemi hand-drawn HH mark</title>
  <desc id="desc">A hand-drawn shared-stem HH monogram based on a pencil sketch, with Persian botanical line details.</desc>
  <defs>
    <linearGradient id="body" x1="23" y1="104" x2="106" y2="24" gradientUnits="userSpaceOnUse">
      <stop stop-color="#151E73"/>
      <stop offset="0.42" stop-color="#151E73"/>
      <stop offset="1" stop-color="#FF0000"/>
    </linearGradient>
    <linearGradient id="edge" x1="20" y1="23" x2="103" y2="106" gradientUnits="userSpaceOnUse">
      <stop stop-color="#F4FAFF"/>
      <stop offset="0.5" stop-color="#FF0000"/>
      <stop offset="1" stop-color="#788BFF"/>
    </linearGradient>
    <filter id="soft" x="-18%" y="-18%" width="136%" height="136%">
      <feGaussianBlur stdDeviation="1.1" result="blur"/>
      <feMerge>
        <feMergeNode in="blur"/>
        <feMergeNode in="SourceGraphic"/>
      </feMerge>
    </filter>
    <style>
      .mark { animation: breathe 4.8s ease-in-out infinite; transform-origin: 64px 67px; }
      .ink { filter: url(#soft); }
      .line { fill: none; stroke: #F4FAFF; stroke-width: 2.2; stroke-linecap: round; stroke-linejoin: round; stroke-dasharray: 90; animation: draw 5.4s ease-in-out infinite; }
      .leaf { fill: none; stroke: #788BFF; stroke-width: 1.7; stroke-linecap: round; stroke-linejoin: round; opacity: .88; }
      @keyframes breathe {
        50% { transform: translateY(-2px) scale(1.025); }
      }
      @keyframes draw {
        0% { stroke-dashoffset: 90; }
        36%, 100% { stroke-dashoffset: 0; }
      }
    </style>
  </defs>

  <g class="mark">
    <path d="M18 42l17-8 9 8-2 58-16 7-9-9 2-56Z" fill="#151E73"/>
    <path d="M53 22l20-6 12 10-4 86-17 8-12-10 3-88Z" fill="url(#body)" class="ink"/>
    <path d="M88 39l18-10 8 9-4 56-14 10-9-9 2-56Z" fill="#FF0000"/>

    <path d="M35 52l26 15 2 15-29-11-6-12 7-7Z" fill="#151E73"/>
    <path d="M72 68l26-17 8 7-7 15-27 12-5-9 5-8Z" fill="#151E73"/>
    <path d="M39 59l21 12M75 74l22-14" class="line"/>

    <path d="M55 25l5-7 6 8 6-8 6 8 5-6-3 20-24 3-1-18Z" fill="#F4FAFF"/>
    <path d="M60 29l-2 79M66 28l-1 83M73 29l-2 78" class="line"/>
    <path d="M54 110l11 10 16-8-10-7-17 5Z" fill="#FF0000"/>

    <path d="M18 42l17-8 9 8-2 58-16 7-9-9 2-56ZM53 22l20-6 12 10-4 86-17 8-12-10 3-88ZM88 39l18-10 8 9-4 56-14 10-9-9 2-56Z" fill="none" stroke="url(#edge)" stroke-width="3" stroke-linejoin="round"/>

    <path d="M22 38c10 12 14 26 10 42" class="leaf"/>
    <path d="M28 49c4-2 7-4 11-7M30 61c4-2 8-3 12-5M30 73c4-1 8-2 12-3" class="leaf"/>
    <path d="M108 35c-12 13-16 28-13 45" class="leaf"/>
    <path d="M101 48c-4-2-8-3-12-5M99 61c-4-1-8-2-12-3M98 74c-4-1-7-1-11-2" class="leaf"/>
    <path d="M64 13l4 6 7 1-5 5 1 7-7-3-6 3 1-7-5-5 7-1 3-6Z" fill="#819C86"/>
  </g>
</svg>
