<svg xmlns="http://www.w3.org/2000/svg" viewBox="0 0 512 512" role="img" aria-label="Hoda Hashemi favicon">
  <title>Hoda Hashemi favicon</title>
  <rect width="512" height="512" fill="#050609"/>
  <path fill="#49F4D1" d="M5.51,44.90h28.36v28.36h-28.36zM5.51,84.28h28.36v28.36h-28.36zM5.51,123.67h28.36v28.36h-28.36zM5.51,163.05h28.36v28.36h-28.36zM5.51,202.44h28.36v28.36h-28.36zM5.51,241.82h28.36v28.36h-28.36zM5.51,281.21h28.36v28.36h-28.36zM5.51,320.59h28.36v28.36h-28.36zM5.51,359.98h28.36v28.36h-28.36zM44.90,5.51h28.36v28.36h-28.36zM44.90,44.90h28.36v28.36h-28.36zM44.90,84.28h28.36v28.36h-28.36zM44.90,123.67h28.36v28.36h-28.36zM44.90,163.05h28.36v28.36h-28.36zM44.90,202.44h28.36v28.36h-28.36zM44.90,241.82h28.36v28.36h-28.36zM44.90,281.21h28.36v28.36h-28.36zM44.90,320.59h28.36v28.36h-28.36zM44.90,359.98h28.36v28.36h-28.36zM44.90,399.36h28.36v28.36h-28.36zM84.28,5.51h28.36v28.36h-28.36zM84.28,44.90h28.36v28.36h-28.36zM84.28,84.28h28.36v28.36h-28.36zM84.28,123.67h28.36v28.36h-28.36zM84.28,202.44h28.36v28.36h-28.36zM84.28,241.82h28.36v28.36h-28.36zM84.28,320.59h28.36v28.36h-28.36zM84.28,359.98h28.36v28.36h-28.36zM84.28,399.36h28.36v28.36h-28.36zM84.28,438.74h28.36v28.36h-28.36zM123.67,5.51h28.36v28.36h-28.36zM123.67,44.90h28.36v28.36h-28.36zM123.67,123.67h28.36v28.36h-28.36zM123.67,163.05h28.36v28.36h-28.36zM123.67,202.44h28.36v28.36h-28.36zM123.67,241.82h28.36v28.36h-28.36zM123.67,281.21h28.36v28.36h-28.36zM123.67,320.59h28.36v28.36h-28.36zM123.67,359.98h28.36v28.36h-28.36zM123.67,399.36h28.36v28.36h-28.36zM123.67,438.74h28.36v28.36h-28.36zM163.05,5.51h28.36v28.36h-28.36zM163.05,84.28h28.36v28.36h-28.36zM163.05,123.67h28.36v28.36h-28.36zM163.05,163.05h28.36v28.36h-28.36zM163.05,202.44h28.36v28.36h-28.36zM163.05,281.21h28.36v28.36h-28.36zM163.05,320.59h28.36v28.36h-28.36zM163.05,359.98h28.36v28.36h-28.36zM163.05,399.36h28.36v28.36h-28.36zM163.05,438.74h28.36v28.36h-28.36zM163.05,478.13h28.36v28.36h-28.36zM202.44,5.51h28.36v28.36h-28.36zM202.44,84.28h28.36v28.36h-28.36zM202.44,123.67h28.36v28.36h-28.36zM202.44,163.05h28.36v28.36h-28.36zM202.44,320.59h28.36v28.36h-28.36zM202.44,359.98h28.36v28.36h-28.36zM202.44,399.36h28.36v28.36h-28.36zM202.44,438.74h28.36v28.36h-28.36zM202.44,478.13h28.36v28.36h-28.36zM241.82,5.51h28.36v28.36h-28.36zM241.82,84.28h28.36v28.36h-28.36zM241.82,123.67h28.36v28.36h-28.36zM241.82,359.98h28.36v28.36h-28.36zM241.82,399.36h28.36v28.36h-28.36zM241.82,438.74h28.36v28.36h-28.36zM241.82,478.13h28.36v28.36h-28.36zM281.21,5.51h28.36v28.36h-28.36zM281.21,84.28h28.36v28.36h-28.36zM281.21,123.67h28.36v28.36h-28.36zM281.21,163.05h28.36v28.36h-28.36zM281.21,320.59h28.36v28.36h-28.36zM281.21,359.98h28.36v28.36h-28.36zM281.21,399.36h28.36v28.36h-28.36zM281.21,438.74h28.36v28.36h-28.36zM281.21,478.13h28.36v28.36h-28.36zM320.59,5.51h28.36v28.36h-28.36zM320.59,84.28h28.36v28.36h-28.36zM320.59,123.67h28.36v28.36h-28.36zM320.59,163.05h28.36v28.36h-28.36zM320.59,202.44h28.36v28.36h-28.36zM320.59,281.21h28.36v28.36h-28.36zM320.59,320.59h28.36v28.36h-28.36zM320.59,359.98h28.36v28.36h-28.36zM320.59,399.36h28.36v28.36h-28.36zM320.59,438.74h28.36v28.36h-28.36zM359.98,5.51h28.36v28.36h-28.36zM359.98,123.67h28.36v28.36h-28.36zM359.98,163.05h28.36v28.36h-28.36zM359.98,202.44h28.36v28.36h-28.36zM359.98,241.82h28.36v28.36h-28.36zM359.98,281.21h28.36v28.36h-28.36zM359.98,320.59h28.36v28.36h-28.36zM359.98,359.98h28.36v28.36h-28.36zM359.98,399.36h28.36v28.36h-28.36zM359.98,438.74h28.36v28.36h-28.36zM399.36,5.51h28.36v28.36h-28.36zM399.36,123.67h28.36v28.36h-28.36zM399.36,163.05h28.36v28.36h-28.36zM399.36,202.44h28.36v28.36h-28.36zM399.36,241.82h28.36v28.36h-28.36zM399.36,281.21h28.36v28.36h-28.36zM399.36,320.59h28.36v28.36h-28.36zM399.36,359.98h28.36v28.36h-28.36zM399.36,399.36h28.36v28.36h-28.36zM438.74,5.51h28.36v28.36h-28.36zM438.74,44.90h28.36v28.36h-28.36zM438.74,202.44h28.36v28.36h-28.36zM438.74,241.82h28.36v28.36h-28.36zM438.74,281.21h28.36v28.36h-28.36zM438.74,320.59h28.36v28.36h-28.36zM478.13,5.51h28.36v28.36h-28.36zM478.13,44.90h28.36v28.36h-28.36zM478.13,84.28h28.36v28.36h-28.36z"/><path fill="#FF5A3D" d="M163.05,241.82h28.36v28.36h-28.36zM202.44,202.44h28.36v28.36h-28.36zM202.44,241.82h28.36v28.36h-28.36zM202.44,281.21h28.36v28.36h-28.36zM241.82,163.05h28.36v28.36h-28.36zM241.82,202.44h28.36v28.36h-28.36zM241.82,241.82h28.36v28.36h-28.36zM241.82,281.21h28.36v28.36h-28.36zM241.82,320.59h28.36v28.36h-28.36zM281.21,202.44h28.36v28.36h-28.36zM281.21,241.82h28.36v28.36h-28.36zM281.21,281.21h28.36v28.36h-28.36zM320.59,241.82h28.36v28.36h-28.36z"/>
</svg>
