<svg xmlns="http://www.w3.org/2000/svg" viewBox="0 0 512 512" role="img" aria-label="Discretized Flow mark light">
  <title>Discretized Flow mark light</title>
  
  <path fill="#F4F2EC" d="M2.11,152.70h10.84v10.84h-10.84zM2.11,167.76h10.84v10.84h-10.84zM2.11,182.81h10.84v10.84h-10.84zM2.11,197.87h10.84v10.84h-10.84zM2.11,212.93h10.84v10.84h-10.84zM2.11,227.99h10.84v10.84h-10.84zM2.11,243.05h10.84v10.84h-10.84zM2.11,258.11h10.84v10.84h-10.84zM2.11,273.17h10.84v10.84h-10.84zM2.11,288.23h10.84v10.84h-10.84zM17.17,107.52h10.84v10.84h-10.84zM17.17,122.58h10.84v10.84h-10.84zM17.17,137.64h10.84v10.84h-10.84zM17.17,152.70h10.84v10.84h-10.84zM17.17,167.76h10.84v10.84h-10.84zM17.17,182.81h10.84v10.84h-10.84zM17.17,197.87h10.84v10.84h-10.84zM17.17,212.93h10.84v10.84h-10.84zM17.17,227.99h10.84v10.84h-10.84zM17.17,243.05h10.84v10.84h-10.84zM17.17,258.11h10.84v10.84h-10.84zM17.17,273.17h10.84v10.84h-10.84zM17.17,288.23h10.84v10.84h-10.84zM17.17,303.28h10.84v10.84h-10.84zM17.17,318.34h10.84v10.84h-10.84zM32.23,77.40h10.84v10.84h-10.84zM32.23,92.46h10.84v10.84h-10.84zM32.23,107.52h10.84v10.84h-10.84zM32.23,122.58h10.84v10.84h-10.84zM32.23,137.64h10.84v10.84h-10.84zM32.23,152.70h10.84v10.84h-10.84zM32.23,167.76h10.84v10.84h-10.84zM32.23,182.81h10.84v10.84h-10.84zM32.23,197.87h10.84v10.84h-10.84zM32.23,212.93h10.84v10.84h-10.84zM32.23,227.99h10.84v10.84h-10.84zM32.23,243.05h10.84v10.84h-10.84zM32.23,258.11h10.84v10.84h-10.84zM32.23,273.17h10.84v10.84h-10.84zM32.23,288.23h10.84v10.84h-10.84zM32.23,303.28h10.84v10.84h-10.84zM32.23,318.34h10.84v10.84h-10.84zM32.23,333.40h10.84v10.84h-10.84zM32.23,348.46h10.84v10.84h-10.84zM47.28,62.34h10.84v10.84h-10.84zM47.28,77.40h10.84v10.84h-10.84zM47.28,92.46h10.84v10.84h-10.84zM47.28,107.52h10.84v10.84h-10.84zM47.28,122.58h10.84v10.84h-10.84zM47.28,137.64h10.84v10.84h-10.84zM47.28,288.23h10.84v10.84h-10.84zM47.28,303.28h10.84v10.84h-10.84zM47.28,318.34h10.84v10.84h-10.84zM47.28,333.40h10.84v10.84h-10.84zM47.28,348.46h10.84v10.84h-10.84zM47.28,363.52h10.84v10.84h-10.84zM47.28,378.58h10.84v10.84h-10.84zM62.34,47.28h10.84v10.84h-10.84zM62.34,62.34h10.84v10.84h-10.84zM62.34,77.40h10.84v10.84h-10.84zM62.34,92.46h10.84v10.84h-10.84zM62.34,107.52h10.84v10.84h-10.84zM62.34,333.40h10.84v10.84h-10.84zM62.34,348.46h10.84v10.84h-10.84zM62.34,363.52h10.84v10.84h-10.84zM62.34,378.58h10.84v10.84h-10.84zM62.34,393.64h10.84v10.84h-10.84zM77.40,32.23h10.84v10.84h-10.84zM77.40,47.28h10.84v10.84h-10.84zM77.40,62.34h10.84v10.84h-10.84zM77.40,77.40h10.84v10.84h-10.84zM77.40,348.46h10.84v10.84h-10.84zM77.40,363.52h10.84v10.84h-10.84zM77.40,378.58h10.84v10.84h-10.84zM77.40,393.64h10.84v10.84h-10.84zM77.40,408.70h10.84v10.84h-10.84zM92.46,17.17h10.84v10.84h-10.84zM92.46,32.23h10.84v10.84h-10.84zM92.46,47.28h10.84v10.84h-10.84zM92.46,62.34h10.84v10.84h-10.84zM92.46,363.52h10.84v10.84h-10.84zM92.46,378.58h10.84v10.84h-10.84zM92.46,393.64h10.84v10.84h-10.84zM92.46,408.70h10.84v10.84h-10.84zM107.52,2.11h10.84v10.84h-10.84zM107.52,17.17h10.84v10.84h-10.84zM107.52,32.23h10.84v10.84h-10.84zM107.52,47.28h10.84v10.84h-10.84zM107.52,378.58h10.84v10.84h-10.84zM107.52,393.64h10.84v10.84h-10.84zM107.52,408.70h10.84v10.84h-10.84zM107.52,423.76h10.84v10.84h-10.84zM122.58,2.11h10.84v10.84h-10.84zM122.58,17.17h10.84v10.84h-10.84zM122.58,32.23h10.84v10.84h-10.84zM122.58,393.64h10.84v10.84h-10.84zM122.58,408.70h10.84v10.84h-10.84zM122.58,423.76h10.84v10.84h-10.84zM122.58,438.81h10.84v10.84h-10.84zM137.64,2.11h10.84v10.84h-10.84zM137.64,17.17h10.84v10.84h-10.84zM137.64,197.87h10.84v10.84h-10.84zM137.64,212.93h10.84v10.84h-10.84zM137.64,227.99h10.84v10.84h-10.84zM137.64,243.05h10.84v10.84h-10.84zM137.64,258.11h10.84v10.84h-10.84zM137.64,273.17h10.84v10.84h-10.84zM137.64,288.23h10.84v10.84h-10.84zM137.64,408.70h10.84v10.84h-10.84zM137.64,423.76h10.84v10.84h-10.84zM137.64,438.81h10.84v10.84h-10.84zM152.70,2.11h10.84v10.84h-10.84zM152.70,17.17h10.84v10.84h-10.84zM152.70,167.76h10.84v10.84h-10.84zM152.70,182.81h10.84v10.84h-10.84zM152.70,197.87h10.84v10.84h-10.84zM152.70,212.93h10.84v10.84h-10.84zM152.70,227.99h10.84v10.84h-10.84zM152.70,243.05h10.84v10.84h-10.84zM152.70,258.11h10.84v10.84h-10.84zM152.70,273.17h10.84v10.84h-10.84zM152.70,288.23h10.84v10.84h-10.84zM152.70,303.28h10.84v10.84h-10.84zM152.70,408.70h10.84v10.84h-10.84zM152.70,423.76h10.84v10.84h-10.84zM152.70,438.81h10.84v10.84h-10.84zM167.76,2.11h10.84v10.84h-10.84zM167.76,152.70h10.84v10.84h-10.84zM167.76,167.76h10.84v10.84h-10.84zM167.76,182.81h10.84v10.84h-10.84zM167.76,197.87h10.84v10.84h-10.84zM167.76,212.93h10.84v10.84h-10.84zM167.76,227.99h10.84v10.84h-10.84zM167.76,243.05h10.84v10.84h-10.84zM167.76,258.11h10.84v10.84h-10.84zM167.76,273.17h10.84v10.84h-10.84zM167.76,288.23h10.84v10.84h-10.84zM167.76,303.28h10.84v10.84h-10.84zM167.76,318.34h10.84v10.84h-10.84zM167.76,423.76h10.84v10.84h-10.84zM167.76,438.81h10.84v10.84h-10.84zM167.76,453.87h10.84v10.84h-10.84zM182.81,2.11h10.84v10.84h-10.84zM182.81,137.64h10.84v10.84h-10.84zM182.81,152.70h10.84v10.84h-10.84zM182.81,167.76h10.84v10.84h-10.84zM182.81,182.81h10.84v10.84h-10.84zM182.81,288.23h10.84v10.84h-10.84zM182.81,303.28h10.84v10.84h-10.84zM182.81,318.34h10.84v10.84h-10.84zM182.81,333.40h10.84v10.84h-10.84zM182.81,423.76h10.84v10.84h-10.84zM182.81,438.81h10.84v10.84h-10.84zM182.81,453.87h10.84v10.84h-10.84zM197.87,122.58h10.84v10.84h-10.84zM197.87,137.64h10.84v10.84h-10.84zM197.87,152.70h10.84v10.84h-10.84zM197.87,167.76h10.84v10.84h-10.84zM197.87,212.93h10.84v10.84h-10.84zM197.87,227.99h10.84v10.84h-10.84zM197.87,243.05h10.84v10.84h-10.84zM197.87,258.11h10.84v10.84h-10.84zM197.87,273.17h10.84v10.84h-10.84zM197.87,303.28h10.84v10.84h-10.84zM197.87,318.34h10.84v10.84h-10.84zM197.87,333.40h10.84v10.84h-10.84zM197.87,423.76h10.84v10.84h-10.84zM197.87,438.81h10.84v10.84h-10.84zM197.87,453.87h10.84v10.84h-10.84zM212.93,122.58h10.84v10.84h-10.84zM212.93,137.64h10.84v10.84h-10.84zM212.93,152.70h10.84v10.84h-10.84zM212.93,197.87h10.84v10.84h-10.84zM212.93,212.93h10.84v10.84h-10.84zM212.93,227.99h10.84v10.84h-10.84zM212.93,243.05h10.84v10.84h-10.84zM212.93,258.11h10.84v10.84h-10.84zM212.93,273.17h10.84v10.84h-10.84zM212.93,288.23h10.84v10.84h-10.84zM212.93,318.34h10.84v10.84h-10.84zM212.93,333.40h10.84v10.84h-10.84zM212.93,348.46h10.84v10.84h-10.84zM212.93,423.76h10.84v10.84h-10.84zM212.93,438.81h10.84v10.84h-10.84zM212.93,453.87h10.84v10.84h-10.84zM227.99,122.58h10.84v10.84h-10.84zM227.99,137.64h10.84v10.84h-10.84zM227.99,152.70h10.84v10.84h-10.84zM227.99,182.81h10.84v10.84h-10.84zM227.99,197.87h10.84v10.84h-10.84zM227.99,212.93h10.84v10.84h-10.84zM227.99,227.99h10.84v10.84h-10.84zM227.99,243.05h10.84v10.84h-10.84zM227.99,258.11h10.84v10.84h-10.84zM227.99,273.17h10.84v10.84h-10.84zM227.99,288.23h10.84v10.84h-10.84zM227.99,303.28h10.84v10.84h-10.84zM227.99,318.34h10.84v10.84h-10.84zM227.99,333.40h10.84v10.84h-10.84zM227.99,348.46h10.84v10.84h-10.84zM227.99,423.76h10.84v10.84h-10.84zM227.99,438.81h10.84v10.84h-10.84zM227.99,453.87h10.84v10.84h-10.84zM243.05,107.52h10.84v10.84h-10.84zM243.05,122.58h10.84v10.84h-10.84zM243.05,137.64h10.84v10.84h-10.84zM243.05,182.81h10.84v10.84h-10.84zM243.05,197.87h10.84v10.84h-10.84zM243.05,212.93h10.84v10.84h-10.84zM243.05,273.17h10.84v10.84h-10.84zM243.05,288.23h10.84v10.84h-10.84zM243.05,303.28h10.84v10.84h-10.84zM243.05,318.34h10.84v10.84h-10.84zM243.05,333.40h10.84v10.84h-10.84zM243.05,348.46h10.84v10.84h-10.84zM243.05,423.76h10.84v10.84h-10.84zM243.05,438.81h10.84v10.84h-10.84zM243.05,453.87h10.84v10.84h-10.84zM258.11,107.52h10.84v10.84h-10.84zM258.11,122.58h10.84v10.84h-10.84zM258.11,137.64h10.84v10.84h-10.84zM258.11,182.81h10.84v10.84h-10.84zM258.11,197.87h10.84v10.84h-10.84zM258.11,212.93h10.84v10.84h-10.84zM258.11,227.99h10.84v10.84h-10.84zM258.11,243.05h10.84v10.84h-10.84zM258.11,258.11h10.84v10.84h-10.84zM258.11,273.17h10.84v10.84h-10.84zM258.11,288.23h10.84v10.84h-10.84zM258.11,303.28h10.84v10.84h-10.84zM258.11,318.34h10.84v10.84h-10.84zM258.11,333.40h10.84v10.84h-10.84zM258.11,348.46h10.84v10.84h-10.84zM258.11,423.76h10.84v10.84h-10.84zM258.11,438.81h10.84v10.84h-10.84zM258.11,453.87h10.84v10.84h-10.84zM273.17,107.52h10.84v10.84h-10.84zM273.17,122.58h10.84v10.84h-10.84zM273.17,137.64h10.84v10.84h-10.84zM273.17,182.81h10.84v10.84h-10.84zM273.17,197.87h10.84v10.84h-10.84zM273.17,212.93h10.84v10.84h-10.84zM273.17,227.99h10.84v10.84h-10.84zM273.17,243.05h10.84v10.84h-10.84zM273.17,258.11h10.84v10.84h-10.84zM273.17,273.17h10.84v10.84h-10.84zM273.17,288.23h10.84v10.84h-10.84zM273.17,303.28h10.84v10.84h-10.84zM273.17,318.34h10.84v10.84h-10.84zM273.17,333.40h10.84v10.84h-10.84zM273.17,348.46h10.84v10.84h-10.84zM273.17,423.76h10.84v10.84h-10.84zM273.17,438.81h10.84v10.84h-10.84zM273.17,453.87h10.84v10.84h-10.84zM288.23,107.52h10.84v10.84h-10.84zM288.23,122.58h10.84v10.84h-10.84zM288.23,137.64h10.84v10.84h-10.84zM288.23,182.81h10.84v10.84h-10.84zM288.23,197.87h10.84v10.84h-10.84zM288.23,212.93h10.84v10.84h-10.84zM288.23,227.99h10.84v10.84h-10.84zM288.23,243.05h10.84v10.84h-10.84zM288.23,258.11h10.84v10.84h-10.84zM288.23,273.17h10.84v10.84h-10.84zM288.23,288.23h10.84v10.84h-10.84zM288.23,303.28h10.84v10.84h-10.84zM288.23,318.34h10.84v10.84h-10.84zM288.23,333.40h10.84v10.84h-10.84zM288.23,408.70h10.84v10.84h-10.84zM288.23,423.76h10.84v10.84h-10.84zM288.23,438.81h10.84v10.84h-10.84zM288.23,453.87h10.84v10.84h-10.84zM303.28,107.52h10.84v10.84h-10.84zM303.28,122.58h10.84v10.84h-10.84zM303.28,137.64h10.84v10.84h-10.84zM303.28,152.70h10.84v10.84h-10.84zM303.28,197.87h10.84v10.84h-10.84zM303.28,212.93h10.84v10.84h-10.84zM303.28,227.99h10.84v10.84h-10.84zM303.28,243.05h10.84v10.84h-10.84zM303.28,258.11h10.84v10.84h-10.84zM303.28,273.17h10.84v10.84h-10.84zM303.28,288.23h10.84v10.84h-10.84zM303.28,303.28h10.84v10.84h-10.84zM303.28,318.34h10.84v10.84h-10.84zM303.28,333.40h10.84v10.84h-10.84zM303.28,408.70h10.84v10.84h-10.84zM303.28,423.76h10.84v10.84h-10.84zM303.28,438.81h10.84v10.84h-10.84zM318.34,122.58h10.84v10.84h-10.84zM318.34,137.64h10.84v10.84h-10.84zM318.34,152.70h10.84v10.84h-10.84zM318.34,212.93h10.84v10.84h-10.84zM318.34,227.99h10.84v10.84h-10.84zM318.34,243.05h10.84v10.84h-10.84zM318.34,258.11h10.84v10.84h-10.84zM318.34,273.17h10.84v10.84h-10.84zM318.34,288.23h10.84v10.84h-10.84zM318.34,303.28h10.84v10.84h-10.84zM318.34,318.34h10.84v10.84h-10.84zM318.34,393.64h10.84v10.84h-10.84zM318.34,408.70h10.84v10.84h-10.84zM318.34,423.76h10.84v10.84h-10.84zM318.34,438.81h10.84v10.84h-10.84zM333.40,122.58h10.84v10.84h-10.84zM333.40,137.64h10.84v10.84h-10.84zM333.40,152.70h10.84v10.84h-10.84zM333.40,167.76h10.84v10.84h-10.84zM333.40,227.99h10.84v10.84h-10.84zM333.40,243.05h10.84v10.84h-10.84zM333.40,258.11h10.84v10.84h-10.84zM333.40,273.17h10.84v10.84h-10.84zM333.40,288.23h10.84v10.84h-10.84zM333.40,393.64h10.84v10.84h-10.84zM333.40,408.70h10.84v10.84h-10.84zM333.40,423.76h10.84v10.84h-10.84zM348.46,137.64h10.84v10.84h-10.84zM348.46,152.70h10.84v10.84h-10.84zM348.46,167.76h10.84v10.84h-10.84zM348.46,182.81h10.84v10.84h-10.84zM348.46,363.52h10.84v10.84h-10.84zM348.46,378.58h10.84v10.84h-10.84zM348.46,393.64h10.84v10.84h-10.84zM348.46,408.70h10.84v10.84h-10.84zM348.46,423.76h10.84v10.84h-10.84zM363.52,137.64h10.84v10.84h-10.84zM363.52,152.70h10.84v10.84h-10.84zM363.52,167.76h10.84v10.84h-10.84zM363.52,182.81h10.84v10.84h-10.84zM363.52,197.87h10.84v10.84h-10.84zM363.52,348.46h10.84v10.84h-10.84zM363.52,363.52h10.84v10.84h-10.84zM363.52,378.58h10.84v10.84h-10.84zM363.52,393.64h10.84v10.84h-10.84zM363.52,408.70h10.84v10.84h-10.84zM378.58,152.70h10.84v10.84h-10.84zM378.58,167.76h10.84v10.84h-10.84zM378.58,182.81h10.84v10.84h-10.84zM378.58,197.87h10.84v10.84h-10.84zM378.58,212.93h10.84v10.84h-10.84zM378.58,227.99h10.84v10.84h-10.84zM378.58,318.34h10.84v10.84h-10.84zM378.58,333.40h10.84v10.84h-10.84zM378.58,348.46h10.84v10.84h-10.84zM378.58,363.52h10.84v10.84h-10.84zM378.58,378.58h10.84v10.84h-10.84zM378.58,393.64h10.84v10.84h-10.84zM393.64,167.76h10.84v10.84h-10.84zM393.64,182.81h10.84v10.84h-10.84zM393.64,197.87h10.84v10.84h-10.84zM393.64,212.93h10.84v10.84h-10.84zM393.64,227.99h10.84v10.84h-10.84zM393.64,243.05h10.84v10.84h-10.84zM393.64,258.11h10.84v10.84h-10.84zM393.64,273.17h10.84v10.84h-10.84zM393.64,288.23h10.84v10.84h-10.84zM393.64,303.28h10.84v10.84h-10.84zM393.64,318.34h10.84v10.84h-10.84zM393.64,333.40h10.84v10.84h-10.84zM393.64,348.46h10.84v10.84h-10.84zM393.64,363.52h10.84v10.84h-10.84zM393.64,378.58h10.84v10.84h-10.84zM408.70,2.11h10.84v10.84h-10.84zM408.70,197.87h10.84v10.84h-10.84zM408.70,212.93h10.84v10.84h-10.84zM408.70,227.99h10.84v10.84h-10.84zM408.70,243.05h10.84v10.84h-10.84zM408.70,258.11h10.84v10.84h-10.84zM408.70,273.17h10.84v10.84h-10.84zM408.70,288.23h10.84v10.84h-10.84zM408.70,303.28h10.84v10.84h-10.84zM408.70,318.34h10.84v10.84h-10.84zM408.70,333.40h10.84v10.84h-10.84zM408.70,348.46h10.84v10.84h-10.84zM423.76,2.11h10.84v10.84h-10.84zM423.76,243.05h10.84v10.84h-10.84zM423.76,258.11h10.84v10.84h-10.84zM423.76,273.17h10.84v10.84h-10.84zM423.76,288.23h10.84v10.84h-10.84zM423.76,303.28h10.84v10.84h-10.84zM438.81,2.11h10.84v10.84h-10.84zM438.81,17.17h10.84v10.84h-10.84zM453.87,2.11h10.84v10.84h-10.84zM453.87,17.17h10.84v10.84h-10.84zM453.87,32.23h10.84v10.84h-10.84zM468.93,2.11h10.84v10.84h-10.84zM468.93,17.17h10.84v10.84h-10.84zM468.93,32.23h10.84v10.84h-10.84zM483.99,2.11h10.84v10.84h-10.84zM483.99,17.17h10.84v10.84h-10.84zM483.99,32.23h10.84v10.84h-10.84zM483.99,47.28h10.84v10.84h-10.84zM499.05,17.17h10.84v10.84h-10.84zM499.05,32.23h10.84v10.84h-10.84zM499.05,47.28h10.84v10.84h-10.84zM499.05,62.34h10.84v10.84h-10.84z"/>
</svg>
