<svg xmlns="http://www.w3.org/2000/svg" viewBox="0 0 420 420" role="img" aria-label="Hoda Hashemi wordmark">
  <rect width="420" height="420" fill="#050609"/>
  <g transform="translate(115.0 34.0)">
    <path fill="#49F4D1" d="M0.89,51.55h4.56v4.56h-4.56zM0.89,57.89h4.56v4.56h-4.56zM0.89,64.22h4.56v4.56h-4.56zM0.89,70.55h4.56v4.56h-4.56zM0.89,76.89h4.56v4.56h-4.56zM0.89,83.22h4.56v4.56h-4.56zM0.89,89.55h4.56v4.56h-4.56zM0.89,95.89h4.56v4.56h-4.56zM0.89,102.22h4.56v4.56h-4.56zM0.89,108.55h4.56v4.56h-4.56zM7.22,38.89h4.56v4.56h-4.56zM7.22,45.22h4.56v4.56h-4.56zM7.22,51.55h4.56v4.56h-4.56zM7.22,57.89h4.56v4.56h-4.56zM7.22,64.22h4.56v4.56h-4.56zM7.22,70.55h4.56v4.56h-4.56zM7.22,76.89h4.56v4.56h-4.56zM7.22,83.22h4.56v4.56h-4.56zM7.22,89.55h4.56v4.56h-4.56zM7.22,95.89h4.56v4.56h-4.56zM7.22,102.22h4.56v4.56h-4.56zM7.22,108.55h4.56v4.56h-4.56zM7.22,114.89h4.56v4.56h-4.56zM7.22,121.22h4.56v4.56h-4.56zM7.22,127.55h4.56v4.56h-4.56zM13.55,26.22h4.56v4.56h-4.56zM13.55,32.55h4.56v4.56h-4.56zM13.55,38.89h4.56v4.56h-4.56zM13.55,45.22h4.56v4.56h-4.56zM13.55,51.55h4.56v4.56h-4.56zM13.55,57.89h4.56v4.56h-4.56zM13.55,64.22h4.56v4.56h-4.56zM13.55,70.55h4.56v4.56h-4.56zM13.55,76.89h4.56v4.56h-4.56zM13.55,83.22h4.56v4.56h-4.56zM13.55,89.55h4.56v4.56h-4.56zM13.55,95.89h4.56v4.56h-4.56zM13.55,102.22h4.56v4.56h-4.56zM13.55,108.55h4.56v4.56h-4.56zM13.55,114.89h4.56v4.56h-4.56zM13.55,121.22h4.56v4.56h-4.56zM13.55,127.55h4.56v4.56h-4.56zM13.55,133.89h4.56v4.56h-4.56zM19.89,19.89h4.56v4.56h-4.56zM19.89,26.22h4.56v4.56h-4.56zM19.89,32.55h4.56v4.56h-4.56zM19.89,38.89h4.56v4.56h-4.56zM19.89,45.22h4.56v4.56h-4.56zM19.89,114.89h4.56v4.56h-4.56zM19.89,121.22h4.56v4.56h-4.56zM19.89,127.55h4.56v4.56h-4.56zM19.89,133.89h4.56v4.56h-4.56zM19.89,140.22h4.56v4.56h-4.56zM26.22,13.55h4.56v4.56h-4.56zM26.22,19.89h4.56v4.56h-4.56zM26.22,26.22h4.56v4.56h-4.56zM26.22,32.55h4.56v4.56h-4.56zM26.22,127.55h4.56v4.56h-4.56zM26.22,133.89h4.56v4.56h-4.56zM26.22,140.22h4.56v4.56h-4.56zM26.22,146.55h4.56v4.56h-4.56zM32.55,7.22h4.56v4.56h-4.56zM32.55,13.55h4.56v4.56h-4.56zM32.55,19.89h4.56v4.56h-4.56zM32.55,26.22h4.56v4.56h-4.56zM32.55,133.89h4.56v4.56h-4.56zM32.55,140.22h4.56v4.56h-4.56zM32.55,146.55h4.56v4.56h-4.56zM32.55,152.89h4.56v4.56h-4.56zM38.89,0.89h4.56v4.56h-4.56zM38.89,7.22h4.56v4.56h-4.56zM38.89,13.55h4.56v4.56h-4.56zM38.89,19.89h4.56v4.56h-4.56zM38.89,140.22h4.56v4.56h-4.56zM38.89,146.55h4.56v4.56h-4.56zM38.89,152.89h4.56v4.56h-4.56zM38.89,159.22h4.56v4.56h-4.56zM45.22,0.89h4.56v4.56h-4.56zM45.22,7.22h4.56v4.56h-4.56zM45.22,13.55h4.56v4.56h-4.56zM45.22,146.55h4.56v4.56h-4.56zM45.22,152.89h4.56v4.56h-4.56zM45.22,159.22h4.56v4.56h-4.56zM51.55,0.89h4.56v4.56h-4.56zM51.55,7.22h4.56v4.56h-4.56zM51.55,64.22h4.56v4.56h-4.56zM51.55,70.55h4.56v4.56h-4.56zM51.55,76.89h4.56v4.56h-4.56zM51.55,83.22h4.56v4.56h-4.56zM51.55,89.55h4.56v4.56h-4.56zM51.55,95.89h4.56v4.56h-4.56zM51.55,102.22h4.56v4.56h-4.56zM51.55,108.55h4.56v4.56h-4.56zM51.55,146.55h4.56v4.56h-4.56zM51.55,152.89h4.56v4.56h-4.56zM51.55,159.22h4.56v4.56h-4.56zM51.55,165.55h4.56v4.56h-4.56zM57.89,0.89h4.56v4.56h-4.56zM57.89,57.89h4.56v4.56h-4.56zM57.89,64.22h4.56v4.56h-4.56zM57.89,70.55h4.56v4.56h-4.56zM57.89,76.89h4.56v4.56h-4.56zM57.89,83.22h4.56v4.56h-4.56zM57.89,89.55h4.56v4.56h-4.56zM57.89,95.89h4.56v4.56h-4.56zM57.89,102.22h4.56v4.56h-4.56zM57.89,108.55h4.56v4.56h-4.56zM57.89,114.89h4.56v4.56h-4.56zM57.89,152.89h4.56v4.56h-4.56zM57.89,159.22h4.56v4.56h-4.56zM57.89,165.55h4.56v4.56h-4.56zM64.22,0.89h4.56v4.56h-4.56zM64.22,51.55h4.56v4.56h-4.56zM64.22,57.89h4.56v4.56h-4.56zM64.22,64.22h4.56v4.56h-4.56zM64.22,70.55h4.56v4.56h-4.56zM64.22,76.89h4.56v4.56h-4.56zM64.22,108.55h4.56v4.56h-4.56zM64.22,114.89h4.56v4.56h-4.56zM64.22,121.22h4.56v4.56h-4.56zM64.22,152.89h4.56v4.56h-4.56zM64.22,159.22h4.56v4.56h-4.56zM64.22,165.55h4.56v4.56h-4.56zM70.55,45.22h4.56v4.56h-4.56zM70.55,51.55h4.56v4.56h-4.56zM70.55,57.89h4.56v4.56h-4.56zM70.55,64.22h4.56v4.56h-4.56zM70.55,114.89h4.56v4.56h-4.56zM70.55,121.22h4.56v4.56h-4.56zM70.55,127.55h4.56v4.56h-4.56zM70.55,159.22h4.56v4.56h-4.56zM70.55,165.55h4.56v4.56h-4.56zM70.55,171.89h4.56v4.56h-4.56zM76.89,45.22h4.56v4.56h-4.56zM76.89,51.55h4.56v4.56h-4.56zM76.89,57.89h4.56v4.56h-4.56zM76.89,121.22h4.56v4.56h-4.56zM76.89,127.55h4.56v4.56h-4.56zM76.89,159.22h4.56v4.56h-4.56zM76.89,165.55h4.56v4.56h-4.56zM76.89,171.89h4.56v4.56h-4.56zM83.22,38.89h4.56v4.56h-4.56zM83.22,45.22h4.56v4.56h-4.56zM83.22,51.55h4.56v4.56h-4.56zM83.22,57.89h4.56v4.56h-4.56zM83.22,127.55h4.56v4.56h-4.56zM83.22,159.22h4.56v4.56h-4.56zM83.22,165.55h4.56v4.56h-4.56zM83.22,171.89h4.56v4.56h-4.56zM89.55,38.89h4.56v4.56h-4.56zM89.55,45.22h4.56v4.56h-4.56zM89.55,51.55h4.56v4.56h-4.56zM89.55,127.55h4.56v4.56h-4.56zM89.55,159.22h4.56v4.56h-4.56zM89.55,165.55h4.56v4.56h-4.56zM89.55,171.89h4.56v4.56h-4.56zM95.89,38.89h4.56v4.56h-4.56zM95.89,45.22h4.56v4.56h-4.56zM95.89,51.55h4.56v4.56h-4.56zM95.89,127.55h4.56v4.56h-4.56zM95.89,152.89h4.56v4.56h-4.56zM95.89,159.22h4.56v4.56h-4.56zM95.89,165.55h4.56v4.56h-4.56zM95.89,171.89h4.56v4.56h-4.56zM102.22,38.89h4.56v4.56h-4.56zM102.22,45.22h4.56v4.56h-4.56zM102.22,51.55h4.56v4.56h-4.56zM102.22,127.55h4.56v4.56h-4.56zM102.22,152.89h4.56v4.56h-4.56zM102.22,159.22h4.56v4.56h-4.56zM102.22,165.55h4.56v4.56h-4.56zM108.55,38.89h4.56v4.56h-4.56zM108.55,45.22h4.56v4.56h-4.56zM108.55,51.55h4.56v4.56h-4.56zM108.55,121.22h4.56v4.56h-4.56zM108.55,152.89h4.56v4.56h-4.56zM108.55,159.22h4.56v4.56h-4.56zM108.55,165.55h4.56v4.56h-4.56zM114.89,38.89h4.56v4.56h-4.56zM114.89,45.22h4.56v4.56h-4.56zM114.89,51.55h4.56v4.56h-4.56zM114.89,57.89h4.56v4.56h-4.56zM114.89,70.55h4.56v4.56h-4.56zM114.89,114.89h4.56v4.56h-4.56zM114.89,121.22h4.56v4.56h-4.56zM114.89,146.55h4.56v4.56h-4.56zM114.89,152.89h4.56v4.56h-4.56zM114.89,159.22h4.56v4.56h-4.56zM114.89,165.55h4.56v4.56h-4.56zM121.22,45.22h4.56v4.56h-4.56zM121.22,51.55h4.56v4.56h-4.56zM121.22,57.89h4.56v4.56h-4.56zM121.22,108.55h4.56v4.56h-4.56zM121.22,114.89h4.56v4.56h-4.56zM121.22,146.55h4.56v4.56h-4.56zM121.22,152.89h4.56v4.56h-4.56zM121.22,159.22h4.56v4.56h-4.56zM127.55,45.22h4.56v4.56h-4.56zM127.55,51.55h4.56v4.56h-4.56zM127.55,57.89h4.56v4.56h-4.56zM127.55,64.22h4.56v4.56h-4.56zM127.55,140.22h4.56v4.56h-4.56zM127.55,146.55h4.56v4.56h-4.56zM127.55,152.89h4.56v4.56h-4.56zM127.55,159.22h4.56v4.56h-4.56zM133.89,51.55h4.56v4.56h-4.56zM133.89,57.89h4.56v4.56h-4.56zM133.89,64.22h4.56v4.56h-4.56zM133.89,70.55h4.56v4.56h-4.56zM133.89,127.55h4.56v4.56h-4.56zM133.89,133.89h4.56v4.56h-4.56zM133.89,140.22h4.56v4.56h-4.56zM133.89,146.55h4.56v4.56h-4.56zM133.89,152.89h4.56v4.56h-4.56zM140.22,57.89h4.56v4.56h-4.56zM140.22,64.22h4.56v4.56h-4.56zM140.22,70.55h4.56v4.56h-4.56zM140.22,76.89h4.56v4.56h-4.56zM140.22,83.22h4.56v4.56h-4.56zM140.22,89.55h4.56v4.56h-4.56zM140.22,108.55h4.56v4.56h-4.56zM140.22,114.89h4.56v4.56h-4.56zM140.22,121.22h4.56v4.56h-4.56zM140.22,127.55h4.56v4.56h-4.56zM140.22,133.89h4.56v4.56h-4.56zM140.22,140.22h4.56v4.56h-4.56zM140.22,146.55h4.56v4.56h-4.56zM146.55,0.89h4.56v4.56h-4.56zM146.55,64.22h4.56v4.56h-4.56zM146.55,70.55h4.56v4.56h-4.56zM146.55,76.89h4.56v4.56h-4.56zM146.55,83.22h4.56v4.56h-4.56zM146.55,89.55h4.56v4.56h-4.56zM146.55,95.89h4.56v4.56h-4.56zM146.55,102.22h4.56v4.56h-4.56zM146.55,108.55h4.56v4.56h-4.56zM146.55,114.89h4.56v4.56h-4.56zM146.55,121.22h4.56v4.56h-4.56zM146.55,127.55h4.56v4.56h-4.56zM146.55,133.89h4.56v4.56h-4.56zM146.55,140.22h4.56v4.56h-4.56zM152.89,0.89h4.56v4.56h-4.56zM152.89,76.89h4.56v4.56h-4.56zM152.89,83.22h4.56v4.56h-4.56zM152.89,89.55h4.56v4.56h-4.56zM152.89,95.89h4.56v4.56h-4.56zM152.89,102.22h4.56v4.56h-4.56zM152.89,108.55h4.56v4.56h-4.56zM152.89,114.89h4.56v4.56h-4.56zM152.89,121.22h4.56v4.56h-4.56zM152.89,127.55h4.56v4.56h-4.56zM159.22,0.89h4.56v4.56h-4.56zM159.22,7.22h4.56v4.56h-4.56zM159.22,95.89h4.56v4.56h-4.56zM159.22,102.22h4.56v4.56h-4.56zM159.22,108.55h4.56v4.56h-4.56zM165.55,0.89h4.56v4.56h-4.56zM165.55,7.22h4.56v4.56h-4.56zM171.89,0.89h4.56v4.56h-4.56zM171.89,7.22h4.56v4.56h-4.56zM171.89,13.55h4.56v4.56h-4.56zM178.22,0.89h4.56v4.56h-4.56zM178.22,7.22h4.56v4.56h-4.56zM178.22,13.55h4.56v4.56h-4.56zM178.22,19.89h4.56v4.56h-4.56zM184.55,7.22h4.56v4.56h-4.56zM184.55,13.55h4.56v4.56h-4.56zM184.55,19.89h4.56v4.56h-4.56zM184.55,26.22h4.56v4.56h-4.56z"/>
    <path fill="#FF5A3D" d="M64.22,83.22h4.56v4.56h-4.56zM64.22,89.55h4.56v4.56h-4.56zM64.22,95.89h4.56v4.56h-4.56zM64.22,102.22h4.56v4.56h-4.56zM70.55,83.22h4.56v4.56h-4.56zM70.55,89.55h4.56v4.56h-4.56zM70.55,95.89h4.56v4.56h-4.56zM70.55,102.22h4.56v4.56h-4.56zM70.55,108.55h4.56v4.56h-4.56zM76.89,70.55h4.56v4.56h-4.56zM76.89,76.89h4.56v4.56h-4.56zM76.89,83.22h4.56v4.56h-4.56zM76.89,89.55h4.56v4.56h-4.56zM76.89,95.89h4.56v4.56h-4.56zM76.89,102.22h4.56v4.56h-4.56zM76.89,108.55h4.56v4.56h-4.56zM76.89,114.89h4.56v4.56h-4.56zM83.22,70.55h4.56v4.56h-4.56zM83.22,76.89h4.56v4.56h-4.56zM83.22,83.22h4.56v4.56h-4.56zM83.22,89.55h4.56v4.56h-4.56zM83.22,95.89h4.56v4.56h-4.56zM83.22,102.22h4.56v4.56h-4.56zM83.22,108.55h4.56v4.56h-4.56zM83.22,114.89h4.56v4.56h-4.56zM83.22,121.22h4.56v4.56h-4.56zM89.55,64.22h4.56v4.56h-4.56zM89.55,70.55h4.56v4.56h-4.56zM89.55,76.89h4.56v4.56h-4.56zM89.55,83.22h4.56v4.56h-4.56zM89.55,95.89h4.56v4.56h-4.56zM89.55,102.22h4.56v4.56h-4.56zM89.55,108.55h4.56v4.56h-4.56zM89.55,114.89h4.56v4.56h-4.56zM89.55,121.22h4.56v4.56h-4.56zM95.89,64.22h4.56v4.56h-4.56zM95.89,70.55h4.56v4.56h-4.56zM95.89,76.89h4.56v4.56h-4.56zM95.89,83.22h4.56v4.56h-4.56zM95.89,89.55h4.56v4.56h-4.56zM95.89,95.89h4.56v4.56h-4.56zM95.89,102.22h4.56v4.56h-4.56zM95.89,108.55h4.56v4.56h-4.56zM95.89,114.89h4.56v4.56h-4.56zM95.89,121.22h4.56v4.56h-4.56zM102.22,64.22h4.56v4.56h-4.56zM102.22,70.55h4.56v4.56h-4.56zM102.22,76.89h4.56v4.56h-4.56zM102.22,83.22h4.56v4.56h-4.56zM102.22,89.55h4.56v4.56h-4.56zM102.22,95.89h4.56v4.56h-4.56zM102.22,102.22h4.56v4.56h-4.56zM102.22,108.55h4.56v4.56h-4.56zM102.22,114.89h4.56v4.56h-4.56zM102.22,121.22h4.56v4.56h-4.56zM108.55,70.55h4.56v4.56h-4.56zM108.55,76.89h4.56v4.56h-4.56zM108.55,83.22h4.56v4.56h-4.56zM108.55,89.55h4.56v4.56h-4.56zM108.55,95.89h4.56v4.56h-4.56zM108.55,102.22h4.56v4.56h-4.56zM108.55,108.55h4.56v4.56h-4.56zM108.55,114.89h4.56v4.56h-4.56zM114.89,76.89h4.56v4.56h-4.56zM114.89,83.22h4.56v4.56h-4.56zM114.89,89.55h4.56v4.56h-4.56zM114.89,95.89h4.56v4.56h-4.56zM114.89,102.22h4.56v4.56h-4.56zM114.89,108.55h4.56v4.56h-4.56zM121.22,83.22h4.56v4.56h-4.56zM121.22,89.55h4.56v4.56h-4.56zM121.22,95.89h4.56v4.56h-4.56zM121.22,102.22h4.56v4.56h-4.56z"/>
  </g>
  <text x="210.0" y="292" fill="#F4F2EC" font-family="Space Grotesk, Arial, sans-serif" font-size="46" font-weight="600" text-anchor="middle">Hoda Hashemi</text>
  <text x="210.0" y="330" fill="#49F4D1" font-family="Space Grotesk, Arial, sans-serif" font-size="16" letter-spacing="3" text-anchor="middle">DISCRETIZED FLOW</text>
</svg>
