<svg xmlns="http://www.w3.org/2000/svg" viewBox="0 0 720 190" role="img" aria-label="Hoda Hashemi wordmark">
  <rect width="720" height="190" fill="#0B0C10"/>
  <g transform="translate(32.0 25.0)">
    <path fill="#21E6C1" d="M0.65,37.99h3.36v3.36h-3.36zM0.65,42.65h3.36v3.36h-3.36zM0.65,47.32h3.36v3.36h-3.36zM0.65,51.99h3.36v3.36h-3.36zM0.65,56.65h3.36v3.36h-3.36zM0.65,61.32h3.36v3.36h-3.36zM0.65,65.99h3.36v3.36h-3.36zM0.65,70.65h3.36v3.36h-3.36zM0.65,75.32h3.36v3.36h-3.36zM0.65,79.99h3.36v3.36h-3.36zM5.32,28.65h3.36v3.36h-3.36zM5.32,33.32h3.36v3.36h-3.36zM5.32,37.99h3.36v3.36h-3.36zM5.32,42.65h3.36v3.36h-3.36zM5.32,47.32h3.36v3.36h-3.36zM5.32,51.99h3.36v3.36h-3.36zM5.32,56.65h3.36v3.36h-3.36zM5.32,61.32h3.36v3.36h-3.36zM5.32,65.99h3.36v3.36h-3.36zM5.32,70.65h3.36v3.36h-3.36zM5.32,75.32h3.36v3.36h-3.36zM5.32,79.99h3.36v3.36h-3.36zM5.32,84.65h3.36v3.36h-3.36zM5.32,89.32h3.36v3.36h-3.36zM5.32,93.99h3.36v3.36h-3.36zM9.99,19.32h3.36v3.36h-3.36zM9.99,23.99h3.36v3.36h-3.36zM9.99,28.65h3.36v3.36h-3.36zM9.99,33.32h3.36v3.36h-3.36zM9.99,37.99h3.36v3.36h-3.36zM9.99,42.65h3.36v3.36h-3.36zM9.99,47.32h3.36v3.36h-3.36zM9.99,51.99h3.36v3.36h-3.36zM9.99,56.65h3.36v3.36h-3.36zM9.99,61.32h3.36v3.36h-3.36zM9.99,65.99h3.36v3.36h-3.36zM9.99,70.65h3.36v3.36h-3.36zM9.99,75.32h3.36v3.36h-3.36zM9.99,79.99h3.36v3.36h-3.36zM9.99,84.65h3.36v3.36h-3.36zM9.99,89.32h3.36v3.36h-3.36zM9.99,93.99h3.36v3.36h-3.36zM9.99,98.65h3.36v3.36h-3.36zM14.65,14.65h3.36v3.36h-3.36zM14.65,19.32h3.36v3.36h-3.36zM14.65,23.99h3.36v3.36h-3.36zM14.65,28.65h3.36v3.36h-3.36zM14.65,33.32h3.36v3.36h-3.36zM14.65,84.65h3.36v3.36h-3.36zM14.65,89.32h3.36v3.36h-3.36zM14.65,93.99h3.36v3.36h-3.36zM14.65,98.65h3.36v3.36h-3.36zM14.65,103.32h3.36v3.36h-3.36zM19.32,9.99h3.36v3.36h-3.36zM19.32,14.65h3.36v3.36h-3.36zM19.32,19.32h3.36v3.36h-3.36zM19.32,23.99h3.36v3.36h-3.36zM19.32,93.99h3.36v3.36h-3.36zM19.32,98.65h3.36v3.36h-3.36zM19.32,103.32h3.36v3.36h-3.36zM19.32,107.99h3.36v3.36h-3.36zM23.99,5.32h3.36v3.36h-3.36zM23.99,9.99h3.36v3.36h-3.36zM23.99,14.65h3.36v3.36h-3.36zM23.99,19.32h3.36v3.36h-3.36zM23.99,98.65h3.36v3.36h-3.36zM23.99,103.32h3.36v3.36h-3.36zM23.99,107.99h3.36v3.36h-3.36zM23.99,112.65h3.36v3.36h-3.36zM28.65,0.65h3.36v3.36h-3.36zM28.65,5.32h3.36v3.36h-3.36zM28.65,9.99h3.36v3.36h-3.36zM28.65,14.65h3.36v3.36h-3.36zM28.65,103.32h3.36v3.36h-3.36zM28.65,107.99h3.36v3.36h-3.36zM28.65,112.65h3.36v3.36h-3.36zM28.65,117.32h3.36v3.36h-3.36zM33.32,0.65h3.36v3.36h-3.36zM33.32,5.32h3.36v3.36h-3.36zM33.32,9.99h3.36v3.36h-3.36zM33.32,107.99h3.36v3.36h-3.36zM33.32,112.65h3.36v3.36h-3.36zM33.32,117.32h3.36v3.36h-3.36zM37.99,0.65h3.36v3.36h-3.36zM37.99,5.32h3.36v3.36h-3.36zM37.99,47.32h3.36v3.36h-3.36zM37.99,51.99h3.36v3.36h-3.36zM37.99,56.65h3.36v3.36h-3.36zM37.99,61.32h3.36v3.36h-3.36zM37.99,65.99h3.36v3.36h-3.36zM37.99,70.65h3.36v3.36h-3.36zM37.99,75.32h3.36v3.36h-3.36zM37.99,79.99h3.36v3.36h-3.36zM37.99,107.99h3.36v3.36h-3.36zM37.99,112.65h3.36v3.36h-3.36zM37.99,117.32h3.36v3.36h-3.36zM37.99,121.99h3.36v3.36h-3.36zM42.65,0.65h3.36v3.36h-3.36zM42.65,42.65h3.36v3.36h-3.36zM42.65,47.32h3.36v3.36h-3.36zM42.65,51.99h3.36v3.36h-3.36zM42.65,56.65h3.36v3.36h-3.36zM42.65,61.32h3.36v3.36h-3.36zM42.65,65.99h3.36v3.36h-3.36zM42.65,70.65h3.36v3.36h-3.36zM42.65,75.32h3.36v3.36h-3.36zM42.65,79.99h3.36v3.36h-3.36zM42.65,84.65h3.36v3.36h-3.36zM42.65,112.65h3.36v3.36h-3.36zM42.65,117.32h3.36v3.36h-3.36zM42.65,121.99h3.36v3.36h-3.36zM47.32,0.65h3.36v3.36h-3.36zM47.32,37.99h3.36v3.36h-3.36zM47.32,42.65h3.36v3.36h-3.36zM47.32,47.32h3.36v3.36h-3.36zM47.32,51.99h3.36v3.36h-3.36zM47.32,56.65h3.36v3.36h-3.36zM47.32,61.32h3.36v3.36h-3.36zM47.32,65.99h3.36v3.36h-3.36zM47.32,70.65h3.36v3.36h-3.36zM47.32,75.32h3.36v3.36h-3.36zM47.32,79.99h3.36v3.36h-3.36zM47.32,84.65h3.36v3.36h-3.36zM47.32,89.32h3.36v3.36h-3.36zM47.32,112.65h3.36v3.36h-3.36zM47.32,117.32h3.36v3.36h-3.36zM47.32,121.99h3.36v3.36h-3.36zM51.99,33.32h3.36v3.36h-3.36zM51.99,37.99h3.36v3.36h-3.36zM51.99,42.65h3.36v3.36h-3.36zM51.99,47.32h3.36v3.36h-3.36zM51.99,61.32h3.36v3.36h-3.36zM51.99,65.99h3.36v3.36h-3.36zM51.99,70.65h3.36v3.36h-3.36zM51.99,75.32h3.36v3.36h-3.36zM51.99,79.99h3.36v3.36h-3.36zM51.99,84.65h3.36v3.36h-3.36zM51.99,89.32h3.36v3.36h-3.36zM51.99,93.99h3.36v3.36h-3.36zM51.99,117.32h3.36v3.36h-3.36zM51.99,121.99h3.36v3.36h-3.36zM51.99,126.65h3.36v3.36h-3.36zM56.65,33.32h3.36v3.36h-3.36zM56.65,37.99h3.36v3.36h-3.36zM56.65,42.65h3.36v3.36h-3.36zM56.65,51.99h3.36v3.36h-3.36zM56.65,56.65h3.36v3.36h-3.36zM56.65,61.32h3.36v3.36h-3.36zM56.65,65.99h3.36v3.36h-3.36zM56.65,70.65h3.36v3.36h-3.36zM56.65,75.32h3.36v3.36h-3.36zM56.65,79.99h3.36v3.36h-3.36zM56.65,84.65h3.36v3.36h-3.36zM56.65,89.32h3.36v3.36h-3.36zM56.65,93.99h3.36v3.36h-3.36zM56.65,117.32h3.36v3.36h-3.36zM56.65,121.99h3.36v3.36h-3.36zM56.65,126.65h3.36v3.36h-3.36zM61.32,28.65h3.36v3.36h-3.36zM61.32,33.32h3.36v3.36h-3.36zM61.32,37.99h3.36v3.36h-3.36zM61.32,42.65h3.36v3.36h-3.36zM61.32,51.99h3.36v3.36h-3.36zM61.32,56.65h3.36v3.36h-3.36zM61.32,61.32h3.36v3.36h-3.36zM61.32,65.99h3.36v3.36h-3.36zM61.32,70.65h3.36v3.36h-3.36zM61.32,75.32h3.36v3.36h-3.36zM61.32,79.99h3.36v3.36h-3.36zM61.32,84.65h3.36v3.36h-3.36zM61.32,89.32h3.36v3.36h-3.36zM61.32,93.99h3.36v3.36h-3.36zM61.32,117.32h3.36v3.36h-3.36zM61.32,121.99h3.36v3.36h-3.36zM61.32,126.65h3.36v3.36h-3.36zM65.99,28.65h3.36v3.36h-3.36zM65.99,33.32h3.36v3.36h-3.36zM65.99,37.99h3.36v3.36h-3.36zM65.99,47.32h3.36v3.36h-3.36zM65.99,51.99h3.36v3.36h-3.36zM65.99,56.65h3.36v3.36h-3.36zM65.99,61.32h3.36v3.36h-3.36zM65.99,70.65h3.36v3.36h-3.36zM65.99,75.32h3.36v3.36h-3.36zM65.99,79.99h3.36v3.36h-3.36zM65.99,84.65h3.36v3.36h-3.36zM65.99,89.32h3.36v3.36h-3.36zM65.99,93.99h3.36v3.36h-3.36zM65.99,117.32h3.36v3.36h-3.36zM65.99,121.99h3.36v3.36h-3.36zM65.99,126.65h3.36v3.36h-3.36zM70.65,28.65h3.36v3.36h-3.36zM70.65,33.32h3.36v3.36h-3.36zM70.65,37.99h3.36v3.36h-3.36zM70.65,47.32h3.36v3.36h-3.36zM70.65,51.99h3.36v3.36h-3.36zM70.65,56.65h3.36v3.36h-3.36zM70.65,61.32h3.36v3.36h-3.36zM70.65,65.99h3.36v3.36h-3.36zM70.65,70.65h3.36v3.36h-3.36zM70.65,75.32h3.36v3.36h-3.36zM70.65,79.99h3.36v3.36h-3.36zM70.65,84.65h3.36v3.36h-3.36zM70.65,89.32h3.36v3.36h-3.36zM70.65,93.99h3.36v3.36h-3.36zM70.65,112.65h3.36v3.36h-3.36zM70.65,117.32h3.36v3.36h-3.36zM70.65,121.99h3.36v3.36h-3.36zM70.65,126.65h3.36v3.36h-3.36zM75.32,28.65h3.36v3.36h-3.36zM75.32,33.32h3.36v3.36h-3.36zM75.32,37.99h3.36v3.36h-3.36zM75.32,47.32h3.36v3.36h-3.36zM75.32,51.99h3.36v3.36h-3.36zM75.32,56.65h3.36v3.36h-3.36zM75.32,61.32h3.36v3.36h-3.36zM75.32,65.99h3.36v3.36h-3.36zM75.32,70.65h3.36v3.36h-3.36zM75.32,75.32h3.36v3.36h-3.36zM75.32,79.99h3.36v3.36h-3.36zM75.32,84.65h3.36v3.36h-3.36zM75.32,89.32h3.36v3.36h-3.36zM75.32,93.99h3.36v3.36h-3.36zM75.32,112.65h3.36v3.36h-3.36zM75.32,117.32h3.36v3.36h-3.36zM75.32,121.99h3.36v3.36h-3.36zM79.99,28.65h3.36v3.36h-3.36zM79.99,33.32h3.36v3.36h-3.36zM79.99,37.99h3.36v3.36h-3.36zM79.99,51.99h3.36v3.36h-3.36zM79.99,56.65h3.36v3.36h-3.36zM79.99,61.32h3.36v3.36h-3.36zM79.99,65.99h3.36v3.36h-3.36zM79.99,70.65h3.36v3.36h-3.36zM79.99,75.32h3.36v3.36h-3.36zM79.99,79.99h3.36v3.36h-3.36zM79.99,84.65h3.36v3.36h-3.36zM79.99,89.32h3.36v3.36h-3.36zM79.99,112.65h3.36v3.36h-3.36zM79.99,117.32h3.36v3.36h-3.36zM79.99,121.99h3.36v3.36h-3.36zM84.65,28.65h3.36v3.36h-3.36zM84.65,33.32h3.36v3.36h-3.36zM84.65,37.99h3.36v3.36h-3.36zM84.65,42.65h3.36v3.36h-3.36zM84.65,51.99h3.36v3.36h-3.36zM84.65,56.65h3.36v3.36h-3.36zM84.65,61.32h3.36v3.36h-3.36zM84.65,65.99h3.36v3.36h-3.36zM84.65,70.65h3.36v3.36h-3.36zM84.65,75.32h3.36v3.36h-3.36zM84.65,79.99h3.36v3.36h-3.36zM84.65,84.65h3.36v3.36h-3.36zM84.65,89.32h3.36v3.36h-3.36zM84.65,107.99h3.36v3.36h-3.36zM84.65,112.65h3.36v3.36h-3.36zM84.65,117.32h3.36v3.36h-3.36zM84.65,121.99h3.36v3.36h-3.36zM89.32,33.32h3.36v3.36h-3.36zM89.32,37.99h3.36v3.36h-3.36zM89.32,42.65h3.36v3.36h-3.36zM89.32,61.32h3.36v3.36h-3.36zM89.32,65.99h3.36v3.36h-3.36zM89.32,70.65h3.36v3.36h-3.36zM89.32,75.32h3.36v3.36h-3.36zM89.32,79.99h3.36v3.36h-3.36zM89.32,84.65h3.36v3.36h-3.36zM89.32,107.99h3.36v3.36h-3.36zM89.32,112.65h3.36v3.36h-3.36zM89.32,117.32h3.36v3.36h-3.36zM93.99,33.32h3.36v3.36h-3.36zM93.99,37.99h3.36v3.36h-3.36zM93.99,42.65h3.36v3.36h-3.36zM93.99,47.32h3.36v3.36h-3.36zM93.99,103.32h3.36v3.36h-3.36zM93.99,107.99h3.36v3.36h-3.36zM93.99,112.65h3.36v3.36h-3.36zM93.99,117.32h3.36v3.36h-3.36zM98.65,37.99h3.36v3.36h-3.36zM98.65,42.65h3.36v3.36h-3.36zM98.65,47.32h3.36v3.36h-3.36zM98.65,51.99h3.36v3.36h-3.36zM98.65,93.99h3.36v3.36h-3.36zM98.65,98.65h3.36v3.36h-3.36zM98.65,103.32h3.36v3.36h-3.36zM98.65,107.99h3.36v3.36h-3.36zM98.65,112.65h3.36v3.36h-3.36zM103.32,42.65h3.36v3.36h-3.36zM103.32,47.32h3.36v3.36h-3.36zM103.32,51.99h3.36v3.36h-3.36zM103.32,56.65h3.36v3.36h-3.36zM103.32,61.32h3.36v3.36h-3.36zM103.32,65.99h3.36v3.36h-3.36zM103.32,79.99h3.36v3.36h-3.36zM103.32,84.65h3.36v3.36h-3.36zM103.32,89.32h3.36v3.36h-3.36zM103.32,93.99h3.36v3.36h-3.36zM103.32,98.65h3.36v3.36h-3.36zM103.32,103.32h3.36v3.36h-3.36zM103.32,107.99h3.36v3.36h-3.36zM107.99,0.65h3.36v3.36h-3.36zM107.99,47.32h3.36v3.36h-3.36zM107.99,51.99h3.36v3.36h-3.36zM107.99,56.65h3.36v3.36h-3.36zM107.99,61.32h3.36v3.36h-3.36zM107.99,65.99h3.36v3.36h-3.36zM107.99,70.65h3.36v3.36h-3.36zM107.99,75.32h3.36v3.36h-3.36zM107.99,79.99h3.36v3.36h-3.36zM107.99,84.65h3.36v3.36h-3.36zM107.99,89.32h3.36v3.36h-3.36zM107.99,93.99h3.36v3.36h-3.36zM107.99,98.65h3.36v3.36h-3.36zM107.99,103.32h3.36v3.36h-3.36zM112.65,0.65h3.36v3.36h-3.36zM112.65,56.65h3.36v3.36h-3.36zM112.65,61.32h3.36v3.36h-3.36zM112.65,65.99h3.36v3.36h-3.36zM112.65,70.65h3.36v3.36h-3.36zM112.65,75.32h3.36v3.36h-3.36zM112.65,79.99h3.36v3.36h-3.36zM112.65,84.65h3.36v3.36h-3.36zM112.65,89.32h3.36v3.36h-3.36zM112.65,93.99h3.36v3.36h-3.36zM117.32,0.65h3.36v3.36h-3.36zM117.32,5.32h3.36v3.36h-3.36zM117.32,70.65h3.36v3.36h-3.36zM117.32,75.32h3.36v3.36h-3.36zM117.32,79.99h3.36v3.36h-3.36zM121.99,0.65h3.36v3.36h-3.36zM121.99,5.32h3.36v3.36h-3.36zM126.65,0.65h3.36v3.36h-3.36zM126.65,5.32h3.36v3.36h-3.36zM126.65,9.99h3.36v3.36h-3.36zM131.32,0.65h3.36v3.36h-3.36zM131.32,5.32h3.36v3.36h-3.36zM131.32,9.99h3.36v3.36h-3.36zM131.32,14.65h3.36v3.36h-3.36zM135.99,5.32h3.36v3.36h-3.36zM135.99,9.99h3.36v3.36h-3.36zM135.99,14.65h3.36v3.36h-3.36zM135.99,19.32h3.36v3.36h-3.36z"/>
  </g>
  <text x="210" y="91" fill="#F2F1ED" font-family="Space Grotesk, Arial, sans-serif" font-size="46" font-weight="600" text-anchor="start">Hoda Hashemi</text>
  <text x="210" y="129" fill="#21E6C1" font-family="Space Grotesk, Arial, sans-serif" font-size="16" letter-spacing="3" text-anchor="start">DISCRETIZED FLOW</text>
</svg>
